<svg xmlns="http://www.w3.org/2000/svg" width="34.572" height="32.628" viewBox="0 0 34.572 32.628"><defs><style>.a{fill:none;stroke:#fff;stroke-linecap:round;stroke-linejoin:round;stroke-width:2px;}</style></defs><g transform="translate(1 1.001)"><path class="a" d="M1333.87,461.486h1.524a2.714,2.714,0,0,1,2.714,2.714v21.891a2.714,2.714,0,0,1-2.714,2.714H1308.25a2.714,2.714,0,0,1-2.714-2.714V464.2a2.714,2.714,0,0,1,2.714-2.714h19.941" transform="translate(-1305.536 -458.178)"/><g transform="translate(9.334 0)"><line class="a" x2="0.005" y2="6.814" transform="translate(13.898)"/><line class="a" x1="0.005" y2="6.814" transform="translate(0 0)"/></g><g transform="translate(9.334 14.996)"><g transform="translate(0 0)"><path class="a" d="M1315.853,474.428" transform="translate(-1315.853 -474.407)"/><line class="a" y1="0.041"/><path class="a" d="M1315.853,482.23" transform="translate(-1315.853 -475.15)"/><line class="a" y1="0.041" transform="translate(0 7.059)"/></g><g transform="translate(6.931 0)"><path class="a" d="M1323.536,474.428" transform="translate(-1323.515 -474.407)"/><line class="a" x1="0.042" y1="0.041"/><path class="a" d="M1323.536,482.23" transform="translate(-1323.515 -475.15)"/><line class="a" x1="0.042" y1="0.041" transform="translate(0 7.059)"/><path class="a" d="M1323.536,474.428" transform="translate(-1323.515 -474.407)"/><path class="a" d="M1323.536,482.23" transform="translate(-1323.515 -475.15)"/></g><g transform="translate(13.903 0)"><line class="a" y1="0.041"/><line class="a" y1="0.041" transform="translate(0 7.059)"/></g></g></g></svg>