<svg xmlns="http://www.w3.org/2000/svg" width="45" height="39" viewBox="0 0 45 39"><defs><style>.a{fill:#fff;}</style></defs><g transform="translate(0.007 2.998)"><path class="a" d="M39.226,12.66C38.419,7.731,34.533,4.147,30,4.147a8.176,8.176,0,0,0-3.357.7A12.327,12.327,0,0,0,12.569.789,14.364,14.364,0,0,0,3.739,13.55,8.666,8.666,0,0,0,.257,22.862,7.669,7.669,0,0,0,7.49,29h7.5a2.081,2.081,0,0,0,0-4.143H7.49a3.886,3.886,0,0,1-3.657-3.448,4.214,4.214,0,0,1,2.419-4.589A2.071,2.071,0,0,0,7.49,14.876a2.63,2.63,0,0,0,0-.373,10.3,10.3,0,0,1,6.587-9.872,8.928,8.928,0,0,1,10.5,3.989,1.768,1.768,0,0,0,2.513.58,5.172,5.172,0,0,1,5.666-.1,6.347,6.347,0,0,1,2.868,5.4A1.981,1.981,0,0,0,37.5,16.574a3.962,3.962,0,0,1,3.751,4.143A3.962,3.962,0,0,1,37.5,24.859H30A2.081,2.081,0,0,0,30,29h7.5c3.8-.012,6.99-3.158,7.43-7.325S42.921,13.637,39.226,12.66Z" transform="translate(0 0)"/><path class="a" d="M5.714,2.285l-2-2a1.034,1.034,0,0,0-1.09-.21,1,1,0,0,0-.33.21l-2,2a1,1,0,0,0,1.42,1.42l.29-.3V10a1,1,0,0,0,2,0V3.405l.29.3a1,1,0,1,0,1.42-1.42Z" transform="translate(19.493 22.007)"/></g></svg>