<?xml version="1.0" encoding="utf-8"?>
<!-- Generator: Adobe Illustrator 25.0.1, SVG Export Plug-In . SVG Version: 6.00 Build 0)  -->
<svg version="1.1" id="Layer_1" xmlns="http://www.w3.org/2000/svg" xmlns:xlink="http://www.w3.org/1999/xlink" x="0px" y="0px"
	 viewBox="0 0 800 278" style="enable-background:new 0 0 800 278;" xml:space="preserve">
<style type="text/css">
	.st0{fill-rule:evenodd;clip-rule:evenodd;fill:#37B57C;}
	.st1{fill:#37B57C;}
	.st2{fill:#21925F;}
	.st3{enable-background:new    ;}
	.st4{fill:#415037;}
</style>
<g id="Group_2030" transform="translate(82.599 19.241)">
	<g id="Group_2028" transform="matrix(1, -0.017, 0.017, 1, 0, 0.825)">
		<g id="Group_2025" transform="translate(0 0)">
			<path id="Path_1467" class="st0" d="M-35,111.7h-17.8l20.1-56.3c5.6-14.6,19.2-24.6,34.8-25.6h17.8L-0.2,86
				C-5.8,100.6-19.4,110.6-35,111.7z"/>
			<path id="Path_1468" class="st0" d="M163.3,111.7h17.8L161,55.4c-5.6-14.6-19.2-24.6-34.8-25.6h-17.8l20,56.3
				C134.2,100.6,147.7,110.6,163.3,111.7z"/>
			<path id="Path_1469" class="st1" d="M45.7,77.1c0,4.5-3.7,8.2-8.2,8.2s-8.2-3.7-8.2-8.2S33,69,37.5,69c0,0,0,0,0,0
				C42.1,69,45.7,72.6,45.7,77.1z"/>
			
				<ellipse id="Ellipse_39" transform="matrix(-0.9999 -1.699501e-02 1.699501e-02 -0.9999 189.588 155.8729)" class="st1" cx="95.5" cy="77.1" rx="8.2" ry="8.2"/>
			<path id="Path_1470" class="st1" d="M28.4,24.7C34.8,7.4,50.9-4.3,69.3-4.9c-3.2,2.6-5.9,5.9-7.7,9.6c10.2-5.8,21.9-8.3,33.5-7.3
				c-3.4,2-6.3,4.5-8.8,7.6c7.5-1.5,15.3-1.5,22.8-0.1c-7,2.1-13,6.7-16.9,12.9C71.3,8.5,46.9,11.1,28.4,24.7z"/>
			<path id="Path_1471" class="st1" d="M100.5,141.7c-1.4-0.9-3.3-0.4-4.2,1c0,0,0,0,0,0c-2.2,4.3-6.4,7.1-11.2,7.5
				c-6.8,0-12.8-7.2-14.8-16.9c1.4-0.6,2.7-1.6,3.6-2.8l11.9-16.2c4.1-5.5-0.3-11.9-7.4-13c-7.8-1.6-15.9-1.6-23.8,0
				c-7.1,1.1-11.4,7.5-7.4,13l11.9,16.2c0.9,1.2,2.2,2.2,3.6,2.8c-2,9.7-8,16.9-14.8,16.9c-4.8-0.4-9-3.2-11.2-7.5
				c-0.9-1.4-2.8-1.9-4.2-1c-1.4,0.9-1.9,2.8-1,4.2c3.3,6.1,9.5,10,16.4,10.3c1.2,0,2.3-0.1,3.4-0.4c4,8.4,9.3,13,15.2,13
				s11.3-4.6,15.2-13c1.1,0.3,2.3,0.4,3.5,0.4c6.9-0.4,13.1-4.3,16.4-10.3C102.4,144.5,102,142.6,100.5,141.7
				C100.5,141.7,100.5,141.7,100.5,141.7z M66.5,162.7c-3.3,0-6.8-3.4-9.6-9.3c4.3-3,7.7-7.2,9.6-12.1c1.9,4.9,5.3,9.1,9.6,12.1
				C73.3,159.4,69.8,162.7,66.5,162.7z"/>
			<path id="Path_1472" class="st0" d="M37.6,222.7c0.1-6.1,2.6-12,6.9-16.3c-19.7-2.9-35.6-9.9-43.4-19v24.2
				c7.7,12.5,23.2,22.3,42.5,26.4C39.8,233.9,37.7,228.4,37.6,222.7z M64.9,207.9c-3.1,0-6.1-0.1-9-0.3c-6,2.7-10.1,8.5-10.5,15.1
				c0,8.1,7,15,16.7,17.6c0.9,0,1.9,0,2.8,0c28.8,0,53.4-11.9,63.7-28.7v-24.2C118.3,199.4,93.7,207.9,64.9,207.9L64.9,207.9z"/>
		</g>
	</g>
	<path id="Rectangle_1528" class="st2" d="M59,201.8h19.8c10.9,0,19.8,8.9,19.8,19.8l0,0c0,10.9-8.9,19.8-19.8,19.8H59
		c-10.9,0-19.8-8.9-19.8-19.8l0,0C39.2,210.7,48.1,201.8,59,201.8z"/>
</g>
<g class="st3">
	<path class="st1" d="M287,80.3h15.4l8.5,43l10.5-43h15.8l10.1,43l8.6-43h15.5l-15.4,59h-17.4l-9.4-38.9l-9.8,38.9H302L287,80.3z"/>
	<path class="st1" d="M399.4,140c-13.8,0-23.7-9.2-23.7-24.1s9.8-24.1,23.7-24.1c13.7,0,23.4,9.1,23.4,23.4c0,1.3-0.1,2.8-0.3,4.2
		H390c0.5,6.1,4.3,9,8.9,9c4,0,6.3-2,7.5-4.5h15.3C419.5,133,411.1,140,399.4,140z M390.1,111.4h18c0-5.1-4-8.1-8.8-8.1
		C394.6,103.3,390.9,106.2,390.1,111.4z"/>
	<path class="st1" d="M448.2,91.8c7,0,11.9,3.2,14.5,7.3v-6.6h14.4v46.9h-14.4v-6.6c-2.6,4.1-7.6,7.3-14.5,7.3
		c-11.4,0-20.6-9.4-20.6-24.2C427.5,101,436.7,91.8,448.2,91.8z M452.4,104.3c-5.4,0-10.3,4-10.3,11.5c0,7.5,4.9,11.7,10.3,11.7
		c5.5,0,10.3-4.1,10.3-11.6S457.9,104.3,452.4,104.3z"/>
	<path class="st1" d="M501.9,139.4h-14.4V92.4h14.4v7.8c3.3-5,8.4-8.3,14.7-8.3v15.2h-4c-6.8,0-10.8,2.4-10.8,10.4V139.4z"/>
	<path class="st1" d="M541.3,91.8c7,0,11.9,3.2,14.5,7.3v-6.6h14.4v46.9h-14.4v-6.6c-2.6,4.1-7.6,7.3-14.5,7.3
		c-11.4,0-20.6-9.4-20.6-24.2C520.6,101,529.8,91.8,541.3,91.8z M545.5,104.3c-5.4,0-10.3,4-10.3,11.5c0,7.5,4.9,11.7,10.3,11.7
		c5.5,0,10.3-4.1,10.3-11.6S551,104.3,545.5,104.3z"/>
	<path class="st1" d="M609.4,91.8c11.6,0,20.7,9.2,20.7,24.1c0,14.8-9.2,24.2-20.7,24.2c-6.9,0-11.9-3.1-14.5-7.2v6.6h-14.4V77.1
		H595v21.9C597.6,94.9,602.7,91.8,609.4,91.8z M605.1,104.3c-5.4,0-10.3,4.1-10.3,11.6s4.9,11.6,10.3,11.6c5.5,0,10.3-4.2,10.3-11.7
		C615.5,108.3,610.6,104.3,605.1,104.3z"/>
	<path class="st1" d="M637.7,77.1h14.4v62.2h-14.4V77.1z"/>
	<path class="st1" d="M683.3,140c-13.8,0-23.7-9.2-23.7-24.1s9.8-24.1,23.7-24.1c13.7,0,23.4,9.1,23.4,23.4c0,1.3-0.1,2.8-0.3,4.2
		h-32.5c0.5,6.1,4.3,9,8.9,9c4,0,6.3-2,7.5-4.5h15.3C703.4,133,695,140,683.3,140z M674,111.4h18c0-5.1-4-8.1-8.8-8.1
		C678.5,103.3,674.8,106.2,674,111.4z"/>
	<path class="st1" d="M733.4,140c-12.5,0-20.9-7-21.6-16.1H726c0.3,3.3,3.3,5.5,7.2,5.5c3.7,0,5.6-1.7,5.6-3.8
		c0-7.6-25.6-2.1-25.6-19.3c0-8,6.8-14.5,19.1-14.5c12.1,0,18.8,6.7,19.8,16h-13.3c-0.4-3.2-2.9-5.3-6.9-5.3c-3.4,0-5.2,1.3-5.2,3.6
		c0,7.5,25.4,2.2,25.6,19.7C752.4,133.9,745.1,140,733.4,140z"/>
</g>
<g class="st3">
	<path class="st4" d="M316.8,160.5c10.7,0,18.8,6,21.4,15.8h-12.1c-1.9-3.9-5.3-5.8-9.5-5.8c-6.8,0-11.4,5-11.4,13s4.6,13,11.4,13
		c4.2,0,7.6-1.9,9.5-5.8h12.1c-2.6,9.8-10.7,15.8-21.4,15.8c-13.3,0-22.7-9.5-22.7-23S303.5,160.5,316.8,160.5z"/>
	<path class="st4" d="M344.9,158.6h11v47.6h-11V158.6z"/>
	<path class="st4" d="M362.9,160.7c0-3.3,2.6-6,6.6-6c3.9,0,6.5,2.6,6.5,6c0,3.3-2.6,5.9-6.5,5.9C365.5,166.6,362.9,164,362.9,160.7
		z M363.9,170.3h11v35.9h-11V170.3z"/>
	<path class="st4" d="M407.6,186.7c0-4.9-2.7-7.6-6.9-7.6s-6.9,2.7-6.9,7.6v19.5h-11v-35.9h11v4.8c2.2-3,6-5.1,10.9-5.1
		c8.3,0,13.8,5.7,13.8,15.3v21h-10.9V186.7z"/>
	<path class="st4" d="M425.2,160.7c0-3.3,2.6-6,6.6-6c3.9,0,6.5,2.6,6.5,6c0,3.3-2.6,5.9-6.5,5.9C427.8,166.6,425.2,164,425.2,160.7
		z M426.2,170.3h11v35.9h-11V170.3z"/>
	<path class="st4" d="M461,169.8c9,0,15.4,5,17.2,13.5h-11.7c-0.9-2.5-2.7-4.1-5.7-4.1c-3.9,0-6.6,3.1-6.6,9.1c0,6,2.7,9.1,6.6,9.1
		c3,0,4.8-1.5,5.7-4.1h11.7c-1.9,8.3-8.2,13.5-17.2,13.5c-10.5,0-18-7.1-18-18.5C443,176.9,450.5,169.8,461,169.8z"/>
	<path class="st4" d="M497.7,169.8c5.3,0,9.1,2.4,11.1,5.6v-5.1h11v35.9h-11v-5.1c-2,3.2-5.8,5.6-11.1,5.6
		c-8.7,0-15.8-7.2-15.8-18.5C481.9,176.9,488.9,169.8,497.7,169.8z M501,179.4c-4.1,0-7.8,3.1-7.8,8.8s3.7,8.9,7.8,8.9
		c4.2,0,7.8-3.2,7.8-8.9S505.1,179.4,501,179.4z"/>
	<path class="st4" d="M527.8,158.6h11v47.6h-11V158.6z"/>
	<path class="st4" d="M578.2,190h-6.8v16.2h-11v-45.1h17.8c11.1,0,16.6,6.2,16.6,14.5C594.8,183,589.7,190,578.2,190z M577.3,181.2
		c4.4,0,6.2-2.2,6.2-5.7c0-3.5-1.9-5.7-6.2-5.7h-6v11.3H577.3z"/>
	<path class="st4" d="M616.8,206.7c-10.5,0-18.5-7.1-18.5-18.5c0-11.4,8.2-18.5,18.6-18.5c10.5,0,18.6,7.1,18.6,18.5
		C635.6,199.6,627.4,206.7,616.8,206.7z M616.8,197.2c3.9,0,7.6-2.9,7.6-8.9c0-6.1-3.6-8.9-7.5-8.9c-4,0-7.5,2.8-7.5,8.9
		C609.5,194.3,612.8,197.2,616.8,197.2z"/>
	<path class="st4" d="M652.5,206.2h-11v-35.9h11v6c2.5-3.8,6.4-6.4,11.3-6.4v11.6h-3c-5.2,0-8.2,1.8-8.2,8V206.2z"/>
	<path class="st4" d="M670.7,179.4h-4.4v-9.1h4.4v-8.7h11v8.7h7.2v9.1h-7.2v14.4c0,2.1,0.9,3,3.3,3h3.9v9.3h-5.6
		c-7.5,0-12.7-3.2-12.7-12.5V179.4z"/>
	<path class="st4" d="M708.7,169.8c5.3,0,9.1,2.4,11.1,5.6v-5.1h11v35.9h-11v-5.1c-2,3.2-5.8,5.6-11.1,5.6
		c-8.7,0-15.8-7.2-15.8-18.5C692.9,176.9,699.9,169.8,708.7,169.8z M711.9,179.4c-4.1,0-7.8,3.1-7.8,8.8s3.7,8.9,7.8,8.9
		c4.2,0,7.8-3.2,7.8-8.9S716.1,179.4,711.9,179.4z"/>
	<path class="st4" d="M738.8,158.6h11v47.6h-11V158.6z"/>
</g>
</svg>
