<svg xmlns="http://www.w3.org/2000/svg" width="41.999" height="38.047" viewBox="0 0 41.999 38.047"><defs><style>.a{fill:#1ec8e5;}.b{fill:red;}</style></defs><g transform="translate(-32.743 -39.088)"><g transform="translate(32.743 39.088)"><path class="a" d="M125.987,176.187a.615.615,0,0,0-.615-.615H108.238a.615.615,0,1,0,0,1.23h17.133A.615.615,0,0,0,125.987,176.187Z" transform="translate(-101.481 -164.376)"/><path class="a" d="M122.472,244.495H108.238a.615.615,0,1,0,0,1.23h14.234a.615.615,0,0,0,0-1.23Z" transform="translate(-101.481 -227.645)"/><path class="a" d="M122.472,313.418H108.238a.615.615,0,1,0,0,1.23h14.234a.615.615,0,0,0,0-1.23Z" transform="translate(-101.481 -290.915)"/><path class="b" d="M339.263,54.738a8.708,8.708,0,0,1-3.256-6.809V47.2a5.369,5.369,0,0,0-2.819-4.721v-.845a2.546,2.546,0,0,0-5.091,0v.845a5.369,5.369,0,0,0-2.819,4.721v.729a8.708,8.708,0,0,1-3.256,6.808,1.425,1.425,0,0,0,.889,2.538h3.933a4,4,0,0,0,7.6,0h3.933a1.425,1.425,0,0,0,.89-2.538Zm-9.935-13.1a1.315,1.315,0,1,1,2.63,0V42a5.366,5.366,0,0,0-2.63,0ZM330.643,58.8a2.766,2.766,0,0,1-2.471-1.524h4.941A2.766,2.766,0,0,1,330.643,58.8Zm7.731-2.754h0Z" transform="translate(-297.8 -39.088)"/><path class="a" d="M69.3,106.642a.615.615,0,0,0-.615.615v5.265a3.7,3.7,0,0,1-3.692,3.692H46.33a2,2,0,0,0-1.385.553l-6.658,6.321.981-5.445a1.213,1.213,0,0,0-1.194-1.428h-.408a3.7,3.7,0,0,1-3.692-3.692V95.708a3.7,3.7,0,0,1,3.692-3.692H59.058a.615.615,0,1,0,0-1.23H37.666a4.928,4.928,0,0,0-4.923,4.923v16.815a4.928,4.928,0,0,0,4.923,4.923h.387L37,123.318a1.081,1.081,0,0,0,1.809.976l6.989-6.634a.778.778,0,0,1,.538-.215H64.988a4.928,4.928,0,0,0,4.923-4.923v-5.265a.615.615,0,0,0-.615-.615Z" transform="translate(-32.743 -86.544)"/></g></g></svg>