<svg xmlns="http://www.w3.org/2000/svg" width="26.404" height="20.525" viewBox="0 0 26.404 20.525"><defs><style>.a,.b,.c,.e{fill:#fff;}.b{stroke:#ff9d00;}.c,.d{stroke:#4d4d4d;}.d,.g{fill:none;}.d{stroke-linecap:round;}.f,.h{stroke:none;}.h{fill:#4d4d4d;}</style></defs><rect class="a" width="15.677" height="3.301" transform="translate(5.776 14.409)"/><path class="b" d="M9.813,2.051a1,1,0,0,1,1.827,0l1.905,4.277a1,1,0,0,0,.822.589l4.726.432A1,1,0,0,1,19.652,9.1l-3.518,3.009a1,1,0,0,0-.325.985l1.031,4.472a1,1,0,0,1-1.473,1.092l-4.144-2.38a1,1,0,0,0-1,0l-4.144,2.38a1,1,0,0,1-1.473-1.092L5.644,13.1a1,1,0,0,0-.325-.985L1.8,9.1A1,1,0,0,1,2.36,7.348l4.726-.432a1,1,0,0,0,.822-.589Z" transform="translate(2.475 1.207)"/><g class="c" transform="translate(0 10.284)"><ellipse class="f" cx="1.238" cy="1.65" rx="1.238" ry="1.65"/><ellipse class="g" cx="1.238" cy="1.65" rx="0.738" ry="1.15"/></g><line class="d" y2="2.479" transform="translate(7.33 3.773)"/><line class="d" x2="2.479" transform="translate(6.09 5.013)"/><g transform="translate(16.882 2.301) rotate(-45)"><line class="d" y2="1.24" transform="translate(1.55 0)"/><line class="d" y2="1.24" transform="translate(1.55 2.014)"/><line class="d" x1="0.93" transform="translate(2.324 1.55)"/><line class="d" x1="0.93" transform="translate(0 1.55)"/></g><g class="e" transform="translate(24.754 13.584) rotate(-90)"><path class="f" d="M1.238,0,2.475,1.65H0Z"/><path class="h" d="M 1.237695574760437 3.576278686523438e-07 L 2.475395679473877 1.650260329246521 L -4.529953002929688e-06 1.650260329246521 L 1.237695574760437 3.576278686523438e-07 Z"/></g></svg>