<?xml version="1.0" encoding="utf-8"?>
<!-- Generator: Adobe Illustrator 27.0.1, SVG Export Plug-In . SVG Version: 6.00 Build 0)  -->
<svg version="1.1" id="Layer_1" xmlns="http://www.w3.org/2000/svg" xmlns:xlink="http://www.w3.org/1999/xlink" x="0px" y="0px"
	 viewBox="0 0 512 512" style="enable-background:new 0 0 512 512;" xml:space="preserve">
<style type="text/css">
	.st0{fill:#009999;}
</style>
<g id="icomoon-ignore">
</g>
<path class="st0" d="M426.2,20.2H73.7c-24.2,0-44.1,19.8-44.1,44.1v381.9c0,24.2,19.8,44.1,44.1,44.1h352.5
	c24.2,0,44.1-19.8,44.1-44.1V64.3C470.3,40.1,450.4,20.2,426.2,20.2z M446.9,470H53.1V40.4h393.8V470z M244.4,150.1h138.6v9.8H244.4
	V150.1z M244.4,169.8h138.6v9.8H244.4V169.8z M244.4,130.4h138.6v9.8H244.4V130.4z M244.4,254.9h138.6v9.8H244.4V254.9z
	 M244.4,274.6h138.6v9.8H244.4V274.6z M244.4,235.2h138.6v9.8H244.4V235.2z M244.4,363.3h138.6v9.8H244.4V363.3z M244.4,383h138.6
	v9.8H244.4V383z M244.4,343.6h138.6v9.8H244.4V343.6z M157.3,129.2H108c-3.4,0-6.2,2.8-6.2,6.2v53.5c0,3.4,2.8,6.2,6.2,6.2h49.4
	c3.4,0,6.2-2.8,6.2-6.2v-53.5C163.5,131.9,160.7,129.2,157.3,129.2z M160.2,192.2h-55.2V132h55.2V192.2z M157.3,224.5H108
	c-3.4,0-6.2,2.8-6.2,6.2v53.5c0,3.4,2.8,6.2,6.2,6.2h49.4c3.4,0,6.2-2.8,6.2-6.2v-53.5C163.5,227.3,160.7,224.5,157.3,224.5z
	 M160.2,287.5h-55.2v-60.2h55.2V287.5z M113.8,256.7l13,14.4l-2.2,2l-13-14.4L113.8,256.7z M153.7,248.1l-29.2,24.8l-1.9-2.2
	l29.2-24.8L153.7,248.1z M113.8,360.6l13,14.4l-2.2,2l-13-14.4L113.8,360.6z M153.7,352.1l-29.2,24.8l-1.9-2.2l29.2-24.8
	L153.7,352.1z M113.8,162.6l13,14.4l-2.2,2l-13-14.4L113.8,162.6z M153.7,154.1l-29.2,24.8l-1.9-2.2l29.2-24.8L153.7,154.1z
	 M156,329.3h-49.4c-3.4,0-6.2,2.8-6.2,6.2V389c0,3.4,2.8,6.2,6.2,6.2H156c3.4,0,6.2-2.8,6.2-6.2v-53.5
	C162.2,332.1,159.4,329.3,156,329.3z M158.9,392.3h-55.2v-60.2h55.2V392.3z"/>
</svg>
