<svg xmlns="http://www.w3.org/2000/svg" xmlns:xlink="http://www.w3.org/1999/xlink" width="41.946" height="41.946" viewBox="0 0 41.946 41.946">
  <defs>
    <clipPath id="clip-path">
      <rect id="Rectangle_84488" data-name="Rectangle 84488" width="30.3" height="26.519" fill="#de1010"/>
    </clipPath>
  </defs>
  <g id="Group_91219" data-name="Group 91219" transform="translate(-1559.055 -542.875)">
    <g id="Component_774_1" data-name="Component 774 – 1" transform="translate(1559.055 542.875)">
      <g id="Group_90831" data-name="Group 90831" transform="translate(-1599.027 -413.875)">
        <g id="Group_90829" data-name="Group 90829" transform="translate(1598.71 413.398)">
          <rect id="Rectangle_1611" data-name="Rectangle 1611" width="41.946" height="41.946" rx="6" transform="translate(0.316 0.477)" fill="#fdc9c9"/>
        </g>
      </g>
    </g>
    <g id="Group_91218" data-name="Group 91218" transform="translate(1564.008 550.589)">
      <g id="Group_91217" data-name="Group 91217" clip-path="url(#clip-path)">
        <path id="Path_36362" data-name="Path 36362" d="M160.041,13.291a11.547,11.547,0,0,0-17.349-9.785,1.29,1.29,0,0,1-.643.164.863.863,0,0,1-.826-.616A1.077,1.077,0,0,1,141.7,1.9,13.032,13.032,0,0,1,145.719.3a13.193,13.193,0,0,1,15.192,8,13.03,13.03,0,0,1-2.817,14.262,12.274,12.274,0,0,1-8,3.878,13.3,13.3,0,0,1-8.856-2.2.938.938,0,0,1-.468-1.018.863.863,0,0,1,.761-.776,1.67,1.67,0,0,1,.874.242,11.4,11.4,0,0,0,15.117-2.43,10.909,10.909,0,0,0,2.519-6.973" transform="translate(-131.609 0)" fill="#de1010"/>
        <path id="Path_36363" data-name="Path 36363" d="M3.347,103.605H3.7q3.555,0,7.11,0c.7,0,1.083.35,1.082.967a.9.9,0,0,1-.829.95,2.969,2.969,0,0,1-.389.014H3.276c.118.13.19.217.27.3q1.973,1.975,3.947,3.95a.939.939,0,0,1,.035,1.453.9.9,0,0,1-1.212.046,3.6,3.6,0,0,1-.283-.267c-1.868-1.867-3.723-3.745-5.609-5.593a1.066,1.066,0,0,1,0-1.7c1.9-1.864,3.767-3.762,5.661-5.633a1.625,1.625,0,0,1,.738-.413.824.824,0,0,1,.894.455.862.862,0,0,1-.035,1.005,2.6,2.6,0,0,1-.3.338q-1.9,1.907-3.811,3.81a2.328,2.328,0,0,1-.286.211Z" transform="translate(0 -91.313)" fill="#de1010"/>
        <path id="Path_36364" data-name="Path 36364" d="M210.465,191.1c-.411,0-.823.01-1.234,0a.963.963,0,1,1,.013-1.925c.833-.011,1.666-.009,2.5,0a.92.92,0,0,1,1.019.969.931.931,0,0,1-1.033.959c-.422.008-.844,0-1.266,0Z" transform="translate(-194.718 -176.874)" fill="#de1010"/>
      </g>
    </g>
  </g>
</svg>
