<svg xmlns="http://www.w3.org/2000/svg" width="47.567" height="50.025" viewBox="0 0 47.567 50.025"><defs><style>.a,.b{fill:#37b57c;}.a{fill-rule:evenodd;}.c{fill:#21925f;}</style></defs><g transform="translate(-0.122 -0.254)"><g transform="matrix(1, -0.017, 0.017, 1, 0, 0.825)"><g transform="translate(0 0)"><path class="a" d="M3.6,16.564H0L4.056,5.184A8.122,8.122,0,0,1,11.088,0h3.6L10.631,11.379A8.125,8.125,0,0,1,3.6,16.564Z" transform="translate(0 7.009)"/><path class="a" d="M11.088,16.564h3.6L10.628,5.184A8.122,8.122,0,0,0,3.6,0H0L4.053,11.379A8.128,8.128,0,0,0,11.088,16.564Z" transform="translate(32.602 7.009)"/><path class="b" d="M3.3,1.652A1.652,1.652,0,1,1,1.652,0,1.651,1.651,0,0,1,3.3,1.652Z" transform="translate(16.612 14.938)"/><ellipse class="b" cx="1.652" cy="1.652" rx="1.652" ry="1.652" transform="translate(28.318 14.938)"/><path class="b" d="M0,5.986A9.168,9.168,0,0,1,8.268,0a5.9,5.9,0,0,0-1.56,1.938A11.669,11.669,0,0,1,13.482.47,6.7,6.7,0,0,0,11.7,2a11.759,11.759,0,0,1,4.618-.012A6.01,6.01,0,0,0,12.91,4.6,12.975,12.975,0,0,0,0,5.986Z" transform="translate(16.418 0)"/><path class="b" d="M14.06,8.435a.616.616,0,0,0-.848.2,2.806,2.806,0,0,1-2.265,1.507c-1.383,0-2.592-1.463-3-3.421a1.765,1.765,0,0,0,.722-.569l2.4-3.266c.824-1.119-.056-2.4-1.49-2.638a11.947,11.947,0,0,0-4.807,0C3.339.479,2.458,1.765,3.281,2.882l2.4,3.266a1.765,1.765,0,0,0,.722.569c-.412,1.96-1.621,3.421-3,3.421A2.806,2.806,0,0,1,1.137,8.631a.615.615,0,0,0-1.044.652A4,4,0,0,0,3.4,11.369a3.147,3.147,0,0,0,.693-.078c.8,1.691,1.885,2.619,3.079,2.619s2.28-.928,3.077-2.621a3.153,3.153,0,0,0,.7.078,4,4,0,0,0,3.309-2.086A.614.614,0,0,0,14.06,8.435ZM7.175,12.679c-.674,0-1.374-.678-1.945-1.87A5.36,5.36,0,0,0,7.175,8.367,5.357,5.357,0,0,0,9.12,10.809C8.548,12,7.848,12.679,7.175,12.679Z" transform="translate(16.936 21.216)"/><path class="a" d="M7.376,7.137a4.753,4.753,0,0,1,1.4-3.3C4.791,3.249,1.571,1.828,0,0V4.9c1.547,2.53,4.7,4.5,8.6,5.347A4.689,4.689,0,0,1,7.376,7.137Zm5.511-3c-.618,0-1.225-.02-1.821-.057A3.6,3.6,0,0,0,8.939,7.137c0,1.634,1.413,3.026,3.384,3.554.187,0,.377.008.564.008,5.819,0,10.8-2.4,12.887-5.8V0C23.692,2.425,18.708,4.133,12.887,4.133Z" transform="translate(10.904 38.889)"/></g></g><rect class="c" width="12" height="8" rx="4" transform="translate(18.62 42.279)"/></g></svg>