<svg xmlns="http://www.w3.org/2000/svg" xmlns:xlink="http://www.w3.org/1999/xlink" width="25.361" height="28.669" viewBox="0 0 25.361 28.669"><defs><style>.a{mix-blend-mode:luminosity;isolation:isolate;}.b{fill:none;}.c,.i{fill:#fff;}.d{fill:#6d6e71;}.e{fill:#e6e7e8;}.f{fill:url(#a);}.g{fill:#d4d6d8;}.h{fill:#2fa860;}.i{font-size:12px;font-family:Nudista-Bold, Nudista;font-weight:700;letter-spacing:-0.04em;}</style><linearGradient id="a" x1="0.979" y1="0.5" x2="0.023" y2="0.5" gradientUnits="objectBoundingBox"><stop offset="0" stop-color="#fff"/><stop offset="1" stop-color="#e6e7e8"/></linearGradient></defs><g class="a" transform="translate(-48 -48)"><path class="b" d="M109.917,48H96V76.669h22.053V56.136Z" transform="translate(-44.692)"/><path class="c" d="M138.745,97.361H120V72h11.578l7.167,7.167Z" transform="translate(-67.038 -22.346)"/><path class="d" d="M288,79.167V72l7.167,7.167Z" transform="translate(-223.46 -22.346)"/><path class="e" d="M288,176l7.167,7.167V176Z" transform="translate(-223.46 -119.179)"/><rect class="b" width="5" height="17" transform="translate(48 57)"/><rect class="f" width="10" height="17" transform="translate(53 57)"/><rect class="e" width="2" height="1" transform="translate(63 62)"/><rect class="e" width="2" height="1" transform="translate(63 65)"/><rect class="e" width="2" height="2" transform="translate(63 67)"/><rect class="e" width="2" height="1" transform="translate(63 70)"/><rect class="e" width="2" height="1" transform="translate(63 59)"/><rect class="e" width="1" height="1" transform="translate(66 62)"/><rect class="e" width="1" height="1" transform="translate(66 65)"/><rect class="e" width="1" height="2" transform="translate(66 67)"/><rect class="e" width="1" height="1" transform="translate(66 70)"/><rect class="e" width="1" height="1" transform="translate(66 59)"/><path class="c" d="M119.719,240h-2.205l-1.654,2.316L114.205,240H112l2.757,3.859L112,247.719h2.205l1.654-2.316,1.654,2.316h2.205l-2.757-3.859Z" transform="translate(-59.589 -178.768)"/><path class="g" d="M320,208l.551.551V208Z" transform="translate(-253.255 -148.974)"/><rect class="h" width="23" height="14" transform="translate(49 58)"/><text class="i" transform="translate(50 69)"><tspan x="0" y="0">PDF</tspan></text></g></svg>